<svg aria-hidden="true" style="position: absolute; width: 0; height: 0; overflow: hidden;" version="1.1" xmlns="http://www.w3.org/2000/svg" xmlns:xlink="http://www.w3.org/1999/xlink">
<defs>
<symbol id="logo" viewBox="0 0 36 32">
<path fill="#28a745" style="fill: var(--color1, #28a745)" d="M33.83 2.459c-3.419 0.196-10.214 0.902-14.409 3.475-0.291 0.177-0.454 0.494-0.454 0.823v22.742c0 0.722 0.788 1.178 1.453 0.843 4.315-2.176 10.558-2.77 13.645-2.932 1.054-0.055 1.873-0.901 1.873-1.916v-21.114c0-1.107-0.957-1.984-2.107-1.92zM16.517 5.936c-4.195-2.573-10.991-3.28-14.409-3.474-1.151-0.066-2.108 0.811-2.108 1.918v21.115c0 1.015 0.819 1.861 1.873 1.916 3.088 0.162 9.333 0.756 13.65 2.935 0.662 0.334 1.447-0.122 1.447-0.842v-22.758c0-0.002 0-0.004 0-0.007 0-0.34-0.18-0.637-0.449-0.803l-0.004-0.002z"></path>
</symbol>
<symbol id="button" viewBox="0 0 22 32">
<path fill="#fff" style="fill: var(--color2, #fff)" d="M19.412 17.472l-11.771 11.766c-0.375 0.377-0.894 0.611-1.467 0.611s-1.092-0.233-1.467-0.611l-1.955-1.955c-0.376-0.375-0.609-0.893-0.609-1.466s0.233-1.091 0.609-1.466l8.342-8.345-8.342-8.342c-0.376-0.375-0.609-0.893-0.609-1.466s0.233-1.091 0.609-1.466l0-0 1.947-1.974c0.375-0.377 0.894-0.611 1.467-0.611s1.092 0.233 1.467 0.611l11.769 11.769c0.822 0.812 0.822 2.129 0.010 2.944z"></path>
</symbol>
</defs>
</svg>
