<svg width="0" height="0" class="hidden">

  <symbol fill="none" xmlns="http://www.w3.org/2000/svg" viewBox="0 0 39 35" id="logo">
   <g clip-path="url(#a)"><path d="M37.002 2.69c-3.74.214-11.172.987-15.76 3.801-.318.194-.497.54-.497.9v24.874c0 .79.862 1.289 1.589.922 4.72-2.38 11.548-3.03 14.924-3.207 1.153-.06 2.049-.986 2.049-2.096V4.79c0-1.211-1.047-2.17-2.305-2.1ZM18.066 6.492c-4.588-2.814-12.021-3.587-15.76-3.8C1.047 2.62 0 3.579 0 4.79v23.095c0 1.11.896 2.035 2.049 2.096 3.377.177 10.208.827 14.93 3.21.724.365 1.583-.134 1.583-.921V7.379a1.03 1.03 0 0 0-.496-.888Z" fill="#28A745"/></g><defs><clipPath id="a"><path fill="#fff" d="M0 .5h39.308v35H0z"/></clipPath></defs>
  
   <symbol fill="none" xmlns="http://www.w3.org/2000/svg" viewBox="0 0 9 13" id="button">
   <path d="M7.88555 7.09764L3.1043 11.8789C2.77383 12.2094 2.23945 12.2094 1.9125 11.8789L1.11797 11.0844C0.7875 10.7539 0.7875 10.2195 1.11797 9.89257L4.50703 6.5035L1.11797 3.11444C0.7875 2.78397 0.7875 2.2496 1.11797 1.92264L1.90898 1.12108C2.23945 0.790613 2.77383 0.790613 3.10078 1.12108L7.88203 5.90233C8.21602 6.2328 8.21602 6.76718 7.88555 7.09764Z" fill="white"/>
   </symbol>
</svg>