<svg aria-hidden="true" style="position: absolute; width: 0; height: 0; overflow: hidden;" version="1.1" xmlns="http://www.w3.org/2000/svg" xmlns:xlink="http://www.w3.org/1999/xlink">
<defs>
<symbol id="arrow" viewBox="0 0 22 32">
<path fill="#fff" style="fill: var(--color1, #fff)" d="M19.411 17.471l-11.769 11.769c-0.813 0.814-2.129 0.814-2.934 0l-1.956-1.956c-0.813-0.814-0.813-2.129 0-2.934l8.342-8.342-8.342-8.342c-0.813-0.813-0.813-2.129 0-2.934l1.947-1.973c0.813-0.813 2.129-0.813 2.934 0l11.769 11.769c0.822 0.813 0.822 2.129 0.009 2.942z"></path>
</symbol>
<symbol id="logo" viewBox="0 0 40 32">
<path fill="#28a745" style="fill: var(--color2, #28a745)" d="M37.654 0.504c-3.806 0.213-11.37 0.986-16.039 3.8-0.322 0.194-0.505 0.539-0.505 0.9v24.874c0 0.79 0.877 1.289 1.617 0.922 4.804-2.38 11.752-3.030 15.188-3.207 1.173-0.061 2.085-0.986 2.085-2.096v-23.095c0.001-1.211-1.066-2.17-2.345-2.099zM18.384 4.304c-4.669-2.814-12.233-3.587-16.038-3.8-1.279-0.071-2.346 0.888-2.346 2.099v23.095c0 1.11 0.912 2.036 2.085 2.096 3.437 0.178 10.388 0.828 15.192 3.209 0.738 0.366 1.612-0.133 1.612-0.92v-24.891c0-0.362-0.182-0.693-0.505-0.888z"></path>
</symbol>
<symbol id="worning" viewBox="0 0 34 32">
<path fill="#eb5757" style="fill: var(--color3, #eb5757)" d="M27.733 23.552c0 0.666-0.228 1.173-0.685 1.523s-1.017 0.525-1.682 0.525h-22.999c-0.664 0-1.225-0.179-1.682-0.538s-0.685-0.862-0.685-1.51c0-0.512 0.149-1.033 0.449-1.562l11.487-20.582c0.548-0.939 1.196-1.408 1.944-1.408s1.379 0.469 1.894 1.408l11.512 20.608c0.299 0.546 0.448 1.058 0.448 1.536zM15.598 10.47v-3.738h-3.464v3.738c0 0.239 0.017 0.465 0.050 0.678s0.079 0.452 0.137 0.717c0.058 0.265 0.104 0.491 0.137 0.678l0.648 4.147h1.47l0.673-4.147c0.033-0.171 0.083-0.393 0.149-0.666s0.116-0.516 0.149-0.73c0.033-0.213 0.050-0.439 0.050-0.678zM15.598 20.378c0-0.495-0.17-0.913-0.511-1.254s-0.752-0.512-1.233-0.512c-0.465 0-0.868 0.171-1.209 0.512s-0.511 0.759-0.511 1.254c0 0.495 0.17 0.917 0.511 1.267s0.743 0.525 1.209 0.525c0.482 0 0.893-0.175 1.233-0.525s0.511-0.772 0.511-1.267z"></path>
</symbol>
<symbol id="facebook" viewBox="0 0 32 32">
<path d="M31.5 16.343c0-8.563-6.938-15.5-15.5-15.5s-15.5 6.938-15.5 15.5c0 7.75 5.625 14.188 13.063 15.312v-10.812h-3.938v-4.5h3.938v-3.375c0-3.875 2.313-6.063 5.812-6.063 1.75 0 3.5 0.313 3.5 0.313v3.813h-1.937c-1.938 0-2.562 1.187-2.562 2.438v2.875h4.313l-0.688 4.5h-3.625v10.812c7.437-1.125 13.125-7.562 13.125-15.312z"></path>
</symbol>
<symbol id="in" viewBox="0 0 32 32">
<path d="M7.25 32v-21.099h-6.563v21.099h6.563zM3.933 8.079c2.117 0 3.81-1.764 3.81-3.881 0-2.046-1.694-3.74-3.81-3.74-2.046 0-3.74 1.694-3.74 3.74 0 2.117 1.694 3.881 3.74 3.881zM31.736 32h0.071v-11.573c0-5.645-1.27-10.020-7.903-10.020-3.175 0-5.292 1.764-6.21 3.387h-0.070v-2.893h-6.28v21.099h6.562v-10.444c0-2.752 0.494-5.363 3.881-5.363s3.458 3.105 3.458 5.575v10.232h6.492z"></path>
</symbol>
<symbol id="twitter" viewBox="0 0 37 32">
<path d="M33.469 8.283c1.458-1.094 2.771-2.406 3.792-3.938-1.312 0.583-2.844 1.021-4.375 1.167 1.604-0.948 2.771-2.406 3.354-4.229-1.458 0.875-3.135 1.531-4.812 1.896-1.458-1.531-3.427-2.406-5.615-2.406-4.229 0-7.656 3.427-7.656 7.656 0 0.583 0.073 1.167 0.219 1.75-6.344-0.365-12.031-3.427-15.823-8.021-0.656 1.094-1.021 2.406-1.021 3.865 0 2.625 1.313 4.958 3.427 6.344-1.24-0.073-2.479-0.365-3.5-0.948v0.073c0 3.719 2.625 6.781 6.125 7.511-0.583 0.146-1.313 0.292-1.969 0.292-0.51 0-0.948-0.073-1.458-0.146 0.948 3.063 3.792 5.25 7.146 5.323-2.625 2.042-5.906 3.281-9.479 3.281-0.656 0-1.24-0.073-1.823-0.146 3.354 2.187 7.365 3.427 11.74 3.427 14.073 0 21.729-11.594 21.729-21.729 0-0.365 0-0.656 0-1.021z"></path>
</symbol>
<symbol id="youtube" viewBox="0 0 45 32">
<path d="M43.664 5.831c-0.486-1.944-2.025-3.484-3.889-3.97-3.484-0.972-17.257-0.972-17.257-0.972s-13.854 0-17.338 0.972c-1.863 0.486-3.403 2.025-3.889 3.97-0.972 3.403-0.972 10.695-0.972 10.695s0 7.211 0.972 10.694c0.486 1.944 2.025 3.403 3.889 3.889 3.484 0.891 17.338 0.891 17.338 0.891s13.773 0 17.257-0.891c1.863-0.486 3.403-1.944 3.889-3.889 0.972-3.484 0.972-10.694 0.972-10.694s0-7.292-0.972-10.694zM17.982 23.088v-13.125l11.505 6.563-11.505 6.563z"></path>
</symbol>
</defs>
</svg>
