<svg aria-hidden="true" style="position: absolute; width: 0; height: 0; overflow: hidden;" version="1.1" xmlns="http://www.w3.org/2000/svg" xmlns:xlink="http://www.w3.org/1999/xlink">
<defs>
<symbol id="action" viewBox="0 0 32 32">
<path d="M4.007 20.005l0.5 3c0.021 0.127 0.090 0.241 0.193 0.318l3.875 2.906 0.451 1.352c0.033 0.1 0.097 0.186 0.182 0.248s0.187 0.094 0.292 0.094c0.028-0 0.055-0.002 0.083-0.007l0.24-0.040-0.296 0.889c-0.017 0.051-0.026 0.104-0.026 0.158v1.5c0 0.133 0.053 0.26 0.146 0.354s0.221 0.146 0.354 0.146h12c0.076 0 0.151-0.017 0.219-0.051s0.128-0.082 0.175-0.142c0.047-0.060 0.079-0.13 0.095-0.204s0.014-0.151-0.004-0.225l-0.301-1.197 3.069 1.753c0.11 0.063 0.24 0.082 0.363 0.052s0.231-0.104 0.301-0.209c0 0 1.041-1.574 1.045-1.586 0.002-0.005 0.524-2.070 0.524-2.070 0.028-0.11 0.017-0.227-0.031-0.33s-0.129-0.187-0.231-0.238l-1-0.5c-0.094-0.047-0.2-0.063-0.304-0.046s-0.199 0.066-0.273 0.14c0 0-1.091 1.115-1.115 1.181l-1.216-0.679 2.058-2.316c0.070-0.079 0.113-0.178 0.124-0.282l0.5-5c0.005-0.049 0.003-0.099-0.007-0.148l-0.783-3.914c-0.154-0.772-0.525-1.485-1.068-2.054s-1.237-0.974-2.001-1.165l-0.998-0.249-2.786-0.929-0.355-0.709v-0.757l0.3-0.225c0.062-0.047 0.113-0.107 0.147-0.176s0.053-0.146 0.053-0.224v-1c0.133 0 0.26-0.053 0.354-0.146s0.146-0.221 0.146-0.354v-1.922c0.331-1.020 0.5-2.087 0.5-3.16v-0.419c0-0.133-0.053-0.26-0.146-0.354s-0.221-0.146-0.354-0.146h-2.586c-1.010-0.003-1.981 0.387-2.708 1.088l-0.812 0.406c-0.419 0.209-0.771 0.532-1.018 0.93s-0.377 0.858-0.377 1.326c0 0.468 0.13 0.928 0.377 1.326s0.599 0.721 1.018 0.93l0.11 0.055c0.015 0.121 0.074 0.233 0.165 0.313s0.209 0.126 0.331 0.126v1c0 0.078 0.018 0.154 0.053 0.224s0.085 0.13 0.147 0.176l0.3 0.225v0.757l-0.362 0.724-2.234 0.894h-0.327c-1.141 0-2.245 0.405-3.116 1.142s-1.451 1.76-1.639 2.885l-0.294 1.762-1.919 2.398c-0.044 0.055-0.076 0.118-0.093 0.186s-0.021 0.139-0.009 0.208zM10.5 29.004l0.438-1.314 1.644-0.274c0.090-0.015 0.174-0.054 0.243-0.113s0.121-0.136 0.15-0.222l0.332-0.997 3.672 1.469-0.395 0.593c-0.069 0.104-0.097 0.23-0.078 0.354s0.084 0.236 0.182 0.314l1.387 1.11h-7.575v-0.919zM11.154 18.183l0.214 1.711-1.077-0.602 0.863-1.109zM15.3 14.523c0.202 0.151 0.448 0.232 0.7 0.232s0.498-0.081 0.7-0.232c0.941-0.71 1.569-1.759 1.748-2.924l0.050 0.017c-0.022 1.613-0.352 3.207-0.97 4.697-0.248 0.598-0.54 1.177-0.875 1.73l-0.152-0.030v-1.59c0-0.133-0.053-0.26-0.146-0.354s-0.221-0.146-0.354-0.146c-0.133 0-0.26 0.053-0.354 0.146s-0.146 0.221-0.146 0.354v1.61l-1.442 0.36-1.835-0.917c-0.049-0.025-0.102-0.041-0.157-0.048l-0.067-0.536v-4.63l1.558-0.623c0.188 1.15 0.812 2.183 1.742 2.885zM20.089 29.127l-0.626 0.626-1.793-1.434 0.651-0.976 0.48-0.16c0.004-0.002 0.009-0.003 0.013-0.005l1.751 1c-0.004 0.007-0.008 0.014-0.012 0.021l-0.464 0.927zM16.714 22.881l1.203-1.324c1.047-1.151 1.891-2.47 2.497-3.903l-0.895 3.131c-0.013 0.045-0.019 0.091-0.019 0.137v3.515l-2.786-1.557zM20.5 20.993l0.628-2.197 0.372 0.745v3.222l-1 1.4v-3.17zM20.5 12.29c0.003 3.179-1.183 6.245-3.323 8.596l-1.36 1.495-1.006-0.562 0.653-0.653c2.456-2.456 3.894-5.749 4.025-9.219l1.010 0.337v0.006zM12.451 20.499l-0.239-1.911 1.564 0.782c0.107 0.053 0.229 0.067 0.345 0.038l1.891-0.473 0.041 0.008c-0.392 0.538-0.825 1.044-1.295 1.515l-0.853 0.853-1.454-0.812zM9.67 20.091l4.943 2.762-0.529 0.793c-0.037 0.055-0.063 0.116-0.076 0.181s-0.013 0.131-0 0.196c0.013 0.065 0.038 0.126 0.075 0.181s0.084 0.102 0.138 0.138c0.055 0.037 0.116 0.062 0.181 0.075s0.131 0.012 0.196-0.001 0.126-0.039 0.181-0.076c0.055-0.037 0.101-0.084 0.138-0.139l0.572-0.858 0.703 0.393-0.607 0.911c-0.037 0.055-0.063 0.116-0.076 0.181s-0.013 0.131-0 0.196c0.013 0.065 0.038 0.126 0.075 0.181s0.084 0.102 0.138 0.138c0.055 0.037 0.116 0.062 0.181 0.075s0.131 0.012 0.196-0.001 0.126-0.039 0.181-0.076c0.055-0.037 0.101-0.084 0.138-0.139l0.651-0.976 1.732 0.968-0.736 1.183-0.221 0.074c-0.105 0.035-0.196 0.104-0.258 0.197l-0.038 0.057-4.265-1.706-1.427-1.427c-0.046-0.046-0.102-0.083-0.162-0.108s-0.126-0.038-0.191-0.038h-1.26l-1.603-2.004 1.033-1.328zM20.707 29.923l0.146-0.146c0.038-0.038 0.070-0.082 0.094-0.13l0.227-0.454 0.184 0.731h-0.651zM25.343 29.757l-6.054-3.459 0.384-0.617 6.111 3.415-0.441 0.661zM26.099 27.031l0.319 0.159-0.244 0.977-0.777-0.434 0.702-0.702zM23.363 13.493c0.441 0.441 0.742 1.002 0.864 1.614l0.768 3.841-0.476 4.764-2.097 2.359-1.469-0.821 1.455-2.036c0.061-0.085 0.093-0.186 0.093-0.291v-3.5c0-0.078-0.018-0.154-0.053-0.224l-0.947-1.894v-4.742l0.396 0.099c0.555 0.139 1.063 0.426 1.468 0.831zM14 6.423v-1h4v1h-0.882l-0.894-0.447c-0.069-0.035-0.146-0.053-0.224-0.053s-0.154 0.018-0.224 0.053l-0.894 0.447h-0.882zM12.5 4.673c-0.001-0.283 0.077-0.561 0.226-0.801s0.362-0.435 0.615-0.561l0.882-0.441c0.048-0.024 0.092-0.056 0.13-0.094 0.27-0.271 0.591-0.487 0.945-0.633s0.733-0.221 1.116-0.22h2.085c-0.007 0.846-0.131 1.687-0.367 2.5h-4.632c-0.133 0-0.26 0.053-0.354 0.146s-0.146 0.221-0.146 0.354v0.879c-0.158-0.142-0.284-0.317-0.37-0.511s-0.13-0.405-0.13-0.618zM15 7.423c0.078 0 0.154-0.018 0.224-0.053l0.776-0.388 0.776 0.388c0.069 0.035 0.146 0.053 0.224 0.053h0.5v0.75l-1 0.75h-1l-1-0.75v-0.75h0.5zM15.033 9.823c0.087 0.065 0.192 0.1 0.3 0.1h1.333c0.108 0 0.213-0.035 0.3-0.1l0.033-0.025v0.125c0 0.078 0.018 0.154 0.053 0.224l0.444 0.888c-0.018 0.524-0.152 1.037-0.394 1.503s-0.584 0.871-1.003 1.186c-0.029 0.021-0.064 0.033-0.1 0.033s-0.071-0.012-0.1-0.033c-0.418-0.316-0.761-0.721-1.003-1.186s-0.376-0.979-0.394-1.502l0.444-0.888c0.035-0.069 0.053-0.146 0.053-0.224v-0.125l0.033 0.025zM6.89 17.736c0.053-0.067 0.089-0.146 0.103-0.23l0.315-1.89c0.146-0.879 0.596-1.679 1.27-2.262s1.531-0.912 2.422-0.929v4.328l-1.735 2.23c-0.062 0.033-0.116 0.079-0.16 0.134s-0.074 0.119-0.090 0.188l-1.41 1.812c-0.069 0.089-0.106 0.198-0.105 0.31s0.039 0.221 0.11 0.309l2 2.5c0.047 0.059 0.106 0.106 0.174 0.138s0.142 0.049 0.216 0.049h1.293l1.135 1.135-0.307 0.921-2.282 0.38-0.365-1.095c-0.032-0.096-0.093-0.181-0.174-0.242l-3.84-2.88-0.43-2.582 1.86-2.326z"></path>
</symbol>
<symbol id="comedy" viewBox="0 0 32 32">
<path d="M22.725 19.656c-0.287-0.257-0.727-0.232-0.982 0.054-1.451 1.622-3.544 2.551-5.743 2.551s-4.291-0.929-5.743-2.551c-0.257-0.286-0.696-0.311-0.982-0.054s-0.31 0.696-0.054 0.982c1.715 1.916 4.186 3.014 6.779 3.014s5.065-1.099 6.779-3.014c0.256-0.287 0.232-0.726-0.054-0.982z"></path>
<path d="M16 0c-8.822 0-16 7.178-16 16s7.178 16 16 16c8.822 0 16-7.178 16-16s-7.178-16-16-16zM16 30.609c-8.056 0-14.609-6.553-14.609-14.609s6.553-14.609 14.609-14.609c8.056 0 14.609 6.553 14.609 14.609s-6.553 14.609-14.609 14.609z"></path>
<path d="M21.565 11.13c-1.918 0-3.478 1.56-3.478 3.478 0 0.384 0.312 0.696 0.696 0.696s0.696-0.312 0.696-0.696c0-1.151 0.936-2.087 2.087-2.087s2.087 0.936 2.087 2.087c0 0.384 0.312 0.696 0.696 0.696s0.696-0.312 0.696-0.696c0-1.918-1.56-3.478-3.478-3.478z"></path>
<path d="M12.522 14.609c0 0.384 0.312 0.696 0.696 0.696s0.696-0.312 0.696-0.696c0-1.918-1.56-3.478-3.478-3.478s-3.478 1.56-3.478 3.478c0 0.384 0.312 0.696 0.696 0.696s0.696-0.312 0.696-0.696c0-1.151 0.936-2.087 2.087-2.087s2.087 0.936 2.087 2.087z"></path>
</symbol>
<symbol id="documentary" viewBox="0 0 32 32">
<path d="M9.449 21.767h0.907c0.099 0 0.195-0.039 0.265-0.11s0.11-0.166 0.11-0.265c0-0.099-0.040-0.195-0.11-0.265s-0.166-0.11-0.265-0.11h-0.907c-0.099 0-0.195 0.040-0.265 0.11s-0.11 0.166-0.11 0.265c0 0.099 0.040 0.195 0.11 0.265s0.166 0.11 0.265 0.11v0z"></path>
<path d="M13.743 22.716h1.16c0.099 0 0.195-0.039 0.265-0.11s0.11-0.166 0.11-0.265c0-0.099-0.040-0.195-0.11-0.265s-0.166-0.11-0.265-0.11h-1.16c-0.099 0-0.195 0.040-0.265 0.11s-0.11 0.166-0.11 0.265c0 0.099 0.040 0.195 0.11 0.265s0.166 0.11 0.265 0.11v0z"></path>
<path d="M20.316 24.677h0.97c0.099 0 0.195-0.040 0.265-0.11s0.11-0.166 0.11-0.265c0-0.099-0.040-0.195-0.11-0.265s-0.166-0.11-0.265-0.11h-0.97c-0.099 0-0.195 0.039-0.265 0.11s-0.11 0.166-0.11 0.265c0 0.099 0.039 0.195 0.11 0.265s0.166 0.11 0.265 0.11v0z"></path>
<path d="M10.339 24.493c0 0.099 0.040 0.195 0.11 0.265s0.166 0.11 0.265 0.11h0.907c0.099 0 0.195-0.040 0.265-0.11s0.11-0.166 0.11-0.265-0.039-0.195-0.11-0.265c-0.070-0.070-0.166-0.11-0.265-0.11h-0.907c-0.099 0-0.195 0.040-0.265 0.11s-0.11 0.166-0.11 0.265z"></path>
<path d="M25.635 25.315c0 0.099 0.040 0.195 0.11 0.265s0.166 0.11 0.265 0.11h1.097c0.099 0 0.195-0.040 0.265-0.11s0.11-0.166 0.11-0.265c0-0.099-0.040-0.195-0.11-0.265s-0.166-0.11-0.265-0.11h-1.097c-0.099 0-0.195 0.040-0.265 0.11s-0.11 0.166-0.11 0.265v0z"></path>
<path d="M5.674 24.94h-1.097c-0.099 0-0.195 0.040-0.265 0.11s-0.11 0.166-0.11 0.265c0 0.099 0.040 0.195 0.11 0.265s0.166 0.11 0.265 0.11h1.097c0.099 0 0.195-0.040 0.265-0.11s0.11-0.166 0.11-0.265c0-0.099-0.040-0.195-0.11-0.265s-0.166-0.11-0.265-0.11v0z"></path>
<path d="M17.729 21.883h0.907c0.099 0 0.195-0.040 0.265-0.11s0.11-0.166 0.11-0.265c0-0.099-0.040-0.195-0.11-0.265s-0.166-0.11-0.265-0.11h-0.907c-0.099 0-0.195 0.039-0.265 0.11s-0.11 0.166-0.11 0.265c0 0.099 0.040 0.195 0.11 0.265s0.166 0.11 0.265 0.11z"></path>
<path d="M14.669 16.677h2.662c0.099 0 0.195-0.039 0.265-0.11s0.11-0.166 0.11-0.265v-1.79c0-0.453-0.18-0.887-0.5-1.206s-0.754-0.5-1.207-0.5-0.887 0.18-1.207 0.5c-0.32 0.32-0.5 0.754-0.5 1.206v1.79c0 0.099 0.039 0.195 0.11 0.265s0.166 0.11 0.265 0.11zM15.044 14.512c0-0.254 0.101-0.497 0.28-0.676s0.423-0.28 0.676-0.28 0.497 0.101 0.676 0.28c0.179 0.179 0.28 0.423 0.28 0.676v1.415h-1.912v-1.415z"></path>
<path d="M13.071 11.957c-0.099 0-0.195 0.040-0.265 0.11s-0.11 0.166-0.11 0.265v0.288c0 0.099 0.040 0.195 0.11 0.265s0.166 0.11 0.265 0.11c0.099 0 0.195-0.039 0.265-0.11s0.11-0.166 0.11-0.265v-0.288c0-0.099-0.039-0.195-0.11-0.265s-0.166-0.11-0.265-0.11z"></path>
<path d="M13.071 13.381c-0.099 0-0.195 0.040-0.265 0.11s-0.11 0.166-0.11 0.265v2.344c0 0.099 0.040 0.195 0.11 0.265s0.166 0.11 0.265 0.11c0.099 0 0.195-0.040 0.265-0.11s0.11-0.166 0.11-0.265v-2.344c0-0.099-0.039-0.195-0.11-0.265s-0.166-0.11-0.265-0.11v0z"></path>
<path d="M26.216 19.494c0-0.099-0.039-0.195-0.11-0.265s-0.166-0.11-0.265-0.11h-1.033c-0.099 0-0.195 0.040-0.265 0.11s-0.11 0.166-0.11 0.265c0 0.099 0.040 0.195 0.11 0.265s0.166 0.11 0.265 0.11h1.033c0.099 0 0.195-0.039 0.265-0.11s0.11-0.166 0.11-0.265v0z"></path>
<path d="M7.852 17.079c0-0.099-0.040-0.195-0.11-0.265s-0.166-0.11-0.265-0.11h-1.034c-0.099 0-0.195 0.040-0.265 0.11s-0.11 0.166-0.11 0.265c0 0.099 0.040 0.195 0.11 0.265s0.166 0.11 0.265 0.11h1.034c0.099 0 0.195-0.040 0.265-0.11s0.11-0.166 0.11-0.265z"></path>
<path d="M29.021 28.933v-13.173c0.262-0.007 0.511-0.116 0.695-0.304s0.286-0.44 0.286-0.702v-3.416c0-0.099-0.040-0.195-0.11-0.265s-0.166-0.11-0.265-0.11h-1.416c-0.099 0-0.195 0.040-0.265 0.11s-0.11 0.166-0.11 0.265v0.764h-0.764v-0.764c0-0.099-0.040-0.195-0.11-0.265s-0.166-0.11-0.265-0.11h-1.416c-0.099 0-0.195 0.040-0.265 0.11s-0.11 0.166-0.11 0.265v0.764h-0.764v-0.764c0-0.099-0.040-0.195-0.11-0.265s-0.166-0.11-0.265-0.11h-1.416c-0.099 0-0.195 0.040-0.265 0.11s-0.11 0.166-0.11 0.265v3.416c0 0.262 0.103 0.514 0.286 0.702s0.432 0.297 0.695 0.304v2.162h-1.553c-0.099 0-0.195 0.040-0.265 0.11s-0.11 0.166-0.11 0.265v0.764h-0.328v-8.012h0.636c0.073-0 0.144-0.021 0.205-0.061s0.109-0.097 0.138-0.164c0.029-0.067 0.038-0.141 0.026-0.213s-0.045-0.139-0.095-0.192l-5.236-5.653v-0.905l2.59-1.127c0.066-0.029 0.123-0.076 0.162-0.136s0.062-0.13 0.063-0.202-0.019-0.143-0.057-0.204c-0.038-0.061-0.093-0.11-0.159-0.141l-2.645-1.242c-0.040-0.073-0.103-0.131-0.179-0.165s-0.162-0.041-0.243-0.020-0.153 0.067-0.204 0.133c-0.051 0.066-0.079 0.147-0.079 0.23v3.779l-5.236 5.653c-0.050 0.054-0.082 0.12-0.095 0.192s-0.003 0.146 0.026 0.213 0.077 0.124 0.138 0.164c0.061 0.040 0.132 0.061 0.205 0.061h0.636v8.012h-0.328v-0.764c0-0.099-0.040-0.195-0.11-0.265s-0.166-0.11-0.265-0.11h-1.553v-2.162c0.262-0.007 0.511-0.116 0.695-0.304s0.286-0.44 0.286-0.702v-3.416c0-0.099-0.040-0.195-0.11-0.265s-0.166-0.11-0.265-0.11h-1.416c-0.099 0-0.195 0.040-0.265 0.11s-0.11 0.166-0.11 0.265v0.764h-0.764v-0.764c0-0.099-0.040-0.195-0.11-0.265s-0.166-0.11-0.265-0.11h-1.416c-0.099 0-0.195 0.040-0.265 0.11s-0.11 0.166-0.11 0.265v0.764h-0.764v-0.764c0-0.099-0.040-0.195-0.11-0.265s-0.166-0.11-0.265-0.11h-1.416c-0.099 0-0.195 0.040-0.265 0.11s-0.11 0.166-0.11 0.265v3.416c0 0.262 0.103 0.514 0.286 0.702s0.432 0.297 0.695 0.304v13.173c-0.468 0.020-0.91 0.219-1.234 0.557s-0.505 0.788-0.506 1.256v0.269c0 0.099 0.040 0.195 0.11 0.265s0.166 0.11 0.265 0.11h28.773c0.099 0 0.195-0.040 0.265-0.11s0.11-0.166 0.11-0.265v-0.269c-0.001-0.468-0.182-0.918-0.506-1.256s-0.766-0.537-1.234-0.557v0zM16.375 1.657l1.531 0.719-1.531 0.667v-1.385zM22.726 14.754v-3.041h0.666v0.764c0 0.099 0.039 0.195 0.11 0.265s0.166 0.11 0.265 0.11h1.514c0.099 0 0.195-0.040 0.265-0.11s0.11-0.166 0.11-0.265v-0.764h0.666v0.764c0 0.099 0.039 0.195 0.11 0.265s0.166 0.11 0.265 0.11h1.514c0.099 0 0.195-0.040 0.265-0.11s0.11-0.166 0.11-0.265v-0.764h0.666v3.041c-0 0.068-0.027 0.134-0.076 0.182s-0.114 0.075-0.182 0.075h-6.011c-0.068-0-0.134-0.027-0.182-0.075s-0.075-0.114-0.075-0.182v0zM16 5.464l4.478 4.834h-6.040c-0.099 0-0.195 0.039-0.265 0.11s-0.11 0.166-0.11 0.265c0 0.099 0.040 0.195 0.11 0.265s0.166 0.11 0.265 0.11h5.513v8.012h-0.259v-0.764c0-0.099-0.040-0.195-0.11-0.265s-0.166-0.11-0.265-0.11h-2.336c-0.099 0-0.195 0.040-0.265 0.11s-0.11 0.166-0.11 0.265v0.764h-1.211v-0.764c0-0.099-0.040-0.195-0.11-0.265s-0.166-0.11-0.265-0.11h-2.336c-0.099 0-0.195 0.040-0.265 0.11s-0.11 0.166-0.11 0.265v0.764h-0.259v-8.012h1.013c0.099 0 0.195-0.040 0.265-0.11s0.11-0.166 0.11-0.265c0-0.099-0.039-0.195-0.11-0.265s-0.166-0.11-0.265-0.11h-1.54l4.478-4.834zM10.221 18.672v0.764c0 0.099 0.040 0.195 0.11 0.265s0.166 0.11 0.265 0.11h2.087c0.099 0 0.195-0.040 0.265-0.11s0.11-0.166 0.11-0.265v-0.764h1.586v0.764c0 0.099 0.040 0.195 0.11 0.265s0.166 0.11 0.265 0.11h1.961c0.099 0 0.195-0.040 0.265-0.11s0.11-0.166 0.11-0.265v-0.764h1.586v0.764c0 0.099 0.039 0.195 0.11 0.265s0.166 0.11 0.265 0.11h2.087c0.099 0 0.195-0.040 0.265-0.11s0.11-0.166 0.11-0.265v-0.764h1.462v1.966h-0.711c-0.099 0-0.195 0.040-0.265 0.11s-0.11 0.166-0.11 0.265c0 0.099 0.040 0.195 0.11 0.265s0.166 0.11 0.265 0.11h0.711v3.084c0 0.099 0.040 0.195 0.11 0.265s0.166 0.11 0.265 0.11c0.099 0 0.195-0.040 0.265-0.11s0.11-0.166 0.11-0.265v-1.629h0.964c0.099 0 0.195-0.040 0.265-0.11s0.11-0.166 0.11-0.265-0.039-0.195-0.11-0.265c-0.070-0.070-0.166-0.11-0.265-0.11h-0.964v-3.796c-0-0.084-0.028-0.165-0.080-0.231s-0.124-0.113-0.205-0.133v-2.172h4.564v0.637h-0.992c-0.099 0-0.195 0.039-0.265 0.11s-0.11 0.166-0.11 0.265c0 0.099 0.040 0.195 0.11 0.265s0.166 0.11 0.265 0.11h0.992v10.766h-0.932c-0.099 0-0.195 0.040-0.265 0.11s-0.11 0.166-0.11 0.265c0 0.099 0.039 0.195 0.11 0.265s0.166 0.11 0.265 0.11h0.932v0.268h-4.28v-3.15c0-0.099-0.040-0.195-0.11-0.265s-0.166-0.11-0.265-0.11c-0.099 0-0.195 0.040-0.265 0.11s-0.11 0.166-0.11 0.265v1.373h-0.774c-0.099 0-0.195 0.040-0.265 0.11s-0.11 0.166-0.11 0.265 0.039 0.195 0.11 0.265c0.070 0.070 0.166 0.11 0.265 0.11h0.774v1.027h-4.747v-1.797h1.594c0.099 0 0.195-0.040 0.265-0.11s0.11-0.166 0.11-0.265c0-0.099-0.040-0.195-0.11-0.265s-0.166-0.11-0.265-0.11h-1.597c-0.013-0.358-0.115-0.708-0.298-1.017s-0.439-0.567-0.746-0.752l-1.256-0.75c-0.058-0.035-0.125-0.053-0.192-0.053s-0.134 0.018-0.192 0.053l-1.256 0.75c-0.318 0.191-0.582 0.461-0.765 0.784s-0.28 0.688-0.281 1.059v1.202h-1.021c-0.099 0-0.195 0.040-0.265 0.11s-0.11 0.166-0.11 0.265c0 0.099 0.040 0.195 0.11 0.265s0.166 0.11 0.265 0.11h1.021v0.521h-4.747v-2.293h0.711c0.099 0 0.195-0.039 0.265-0.11s0.11-0.166 0.11-0.265c0-0.099-0.040-0.195-0.11-0.265s-0.166-0.11-0.265-0.11h-0.711v-7.217h1.462zM17.744 26.459v2.473h-3.489v-2.473c0.001-0.242 0.063-0.479 0.183-0.689s0.291-0.386 0.498-0.51l1.064-0.635 1.064 0.635c0.207 0.124 0.378 0.3 0.498 0.51s0.182 0.447 0.183 0.689v0zM2.748 14.754v-3.041h0.666v0.764c0 0.099 0.039 0.195 0.11 0.265s0.166 0.11 0.265 0.11h1.514c0.099 0 0.195-0.040 0.265-0.11s0.11-0.166 0.11-0.265v-0.764h0.666v0.764c0 0.099 0.039 0.195 0.11 0.265s0.166 0.11 0.265 0.11h1.514c0.099 0 0.195-0.040 0.265-0.11s0.11-0.166 0.11-0.265v-0.764h0.666v3.041c-0 0.068-0.027 0.134-0.076 0.182s-0.114 0.075-0.182 0.075h-6.011c-0.068-0-0.134-0.027-0.182-0.075s-0.075-0.114-0.075-0.182v0zM7.297 22.906h0.711v3.271c-0.014 0.057-0.014 0.117 0 0.175v1.31h-0.964c-0.099 0-0.195 0.040-0.265 0.11s-0.11 0.166-0.11 0.265c0 0.099 0.040 0.195 0.11 0.265s0.166 0.11 0.265 0.11h0.964v0.521h-4.28v-8.873h0.989c0.099 0 0.195-0.039 0.265-0.11s0.11-0.166 0.11-0.265c0-0.099-0.040-0.195-0.11-0.265s-0.166-0.11-0.265-0.11h-0.989v-3.547h4.564v2.172c-0.081 0.020-0.153 0.067-0.205 0.133s-0.080 0.147-0.080 0.231v3.859h-0.711c-0.099 0-0.195 0.040-0.265 0.11s-0.11 0.166-0.11 0.265c0 0.099 0.040 0.195 0.11 0.265s0.166 0.11 0.265 0.11v0zM1.994 30.639c0.027-0.263 0.15-0.506 0.345-0.683s0.45-0.275 0.714-0.275h25.894c0.264 0 0.518 0.098 0.714 0.275s0.319 0.42 0.345 0.683h-28.012z"></path>
</symbol>
<symbol id="drama" viewBox="0 0 32 32">
<path d="M29.971 1.252l-0.516-0.128c-5.717-1.424-11.695-1.424-17.412 0l-0.515 0.128c-1.193 0.297-2.031 1.369-2.029 2.599v3.73c-2.663 0.754-5.231 1.813-7.652 3.155l-0.468 0.258c-1.076 0.594-1.607 1.847-1.286 3.033l1.559 5.83c1.406 5.232 5.274 9.451 10.365 11.304l1.607 0.589c1.907 0.686 4.038 0.113 5.345-1.435l1.097-1.311c1.022-1.215 1.86-2.573 2.489-4.031 0.338-0.131 0.66-0.301 0.96-0.505l1.401-0.981c4.438-3.11 7.082-8.188 7.084-13.607v-6.031c0.001-1.229-0.836-2.302-2.029-2.599v0zM19.246 28.317l-1.098 1.312c-1.017 1.204-2.675 1.65-4.158 1.116l-1.607-0.589c-4.762-1.734-8.381-5.681-9.696-10.575l-1.56-5.83c-0.192-0.711 0.126-1.461 0.77-1.817l0.467-0.258c2.26-1.253 4.653-2.252 7.134-2.979v1.186c0.004 4.799 2.082 9.362 5.699 12.515-0.942 0.383-1.937 0.622-2.951 0.709l-4.029 0.327c-0.244 0.019-0.444 0.201-0.486 0.443s0.085 0.48 0.308 0.58l5.341 2.411c1.163 0.527 2.536 0.16 3.281-0.878l1.169-1.626 0.153 0.107c0.811 0.566 1.776 0.869 2.765 0.868 0.161 0 0.316-0.020 0.474-0.036-0.538 1.079-1.202 2.091-1.978 3.015v0zM16.142 23.16c0.146 0.107 0.289 0.223 0.439 0.328l0.371 0.26-1.161 1.616c-0.447 0.622-1.271 0.842-1.969 0.525l-3.449-1.554 1.96-0.161c1.32-0.111 2.609-0.454 3.809-1.014v0zM30.929 9.882c-0.002 5.070-2.475 9.819-6.627 12.729l-1.401 0.981c-1.293 0.901-3.010 0.901-4.302 0l-1.401-0.981c-4.152-2.909-6.625-7.659-6.627-12.729v-6.031c0-0.737 0.502-1.38 1.217-1.559l0.516-0.129c5.546-1.381 11.346-1.381 16.892 0l0.516 0.129c0.715 0.179 1.217 0.822 1.217 1.559v6.031z"></path>
<path d="M18.763 10.057l0.731-0.784c-1.675-1.671-4.387-1.671-6.062 0l-0.027 0.027 0.784 0.731c0.607-0.608 1.433-0.947 2.292-0.942s1.681 0.354 2.281 0.969z"></path>
<path d="M22.004 9.273l-0.027 0.027 0.784 0.731c0.607-0.608 1.433-0.947 2.292-0.942s1.681 0.354 2.281 0.969l0.731-0.784c-1.675-1.671-4.386-1.671-6.062 0z"></path>
<path d="M7.639 17.822c0.838-0.225 1.73-0.101 2.476 0.342l0.499-0.949c-2.050-1.183-4.671-0.481-5.855 1.568l-0.019 0.033 0.463 0.268 0.482 0.235c0.425-0.74 1.128-1.279 1.953-1.496z"></path>
<path d="M26.546 15.044l-3.976 0.723c-1.204 0.22-2.439 0.22-3.643 0l-3.977-0.723c-0.24-0.044-0.48 0.081-0.582 0.302s-0.042 0.485 0.147 0.639l4.537 3.711c0.988 0.804 2.405 0.804 3.392 0l4.536-3.712c0.189-0.155 0.25-0.418 0.147-0.639s-0.342-0.346-0.582-0.302v0.001zM21.767 18.868c-0.593 0.483-1.443 0.483-2.036 0l-2.933-2.399 1.938 0.352c1.331 0.243 2.694 0.243 4.025 0l1.938-0.352-2.932 2.399z"></path>
</symbol>
<symbol id="ghost" viewBox="0 0 32 32">
<path d="M31.167 10.043c-0.095-0.225-0.235-0.428-0.412-0.596s-0.388-0.298-0.618-0.38-0.475-0.116-0.718-0.099c-0.244 0.017-0.481 0.084-0.698 0.198-0.823 0.431-1.614 0.922-2.366 1.467 0-0.092 0-0.185 0-0.277 0-2.746-1.091-5.38-3.033-7.322s-4.575-3.033-7.322-3.033c-2.746 0-5.38 1.091-7.322 3.033s-3.033 4.575-3.033 7.322v0.277c-0.752-0.545-1.543-1.035-2.366-1.467-0.39-0.207-0.843-0.26-1.27-0.15s-0.797 0.377-1.037 0.747-0.333 0.817-0.26 1.252c0.073 0.435 0.306 0.827 0.654 1.099 1.484 1.212 2.798 2.618 3.905 4.181-0.214 1.714-0.52 3.415-0.916 5.095l-1.39 5.656c-0.014 0.058-0.016 0.119-0.006 0.178s0.032 0.116 0.065 0.166c0.033 0.050 0.076 0.093 0.126 0.126s0.106 0.055 0.166 0.066l1.635 0.285c0.29 0.051 0.566 0.163 0.809 0.329s0.447 0.383 0.6 0.636l0.199 0.33c0.29 0.479 0.71 0.865 1.211 1.114s1.064 0.348 1.62 0.288l0.385-0.042c0.292-0.032 0.587-0.001 0.866 0.091s0.535 0.242 0.751 0.44l0.257 0.237c0.42 0.387 0.945 0.643 1.508 0.736s1.142 0.019 1.665-0.212l0.343-0.152c0.263-0.116 0.546-0.175 0.833-0.175s0.571 0.060 0.834 0.175l0.343 0.152c0.522 0.232 1.101 0.306 1.665 0.213s1.088-0.349 1.508-0.736l0.257-0.237c0.216-0.198 0.472-0.349 0.751-0.44s0.574-0.123 0.866-0.091l0.386 0.042c0.556 0.060 1.119-0.040 1.62-0.288s0.922-0.635 1.211-1.114l0.2-0.33c0.152-0.252 0.356-0.469 0.599-0.636s0.519-0.279 0.809-0.329l1.635-0.285c0.059-0.010 0.115-0.033 0.166-0.066s0.093-0.076 0.126-0.126c0.033-0.050 0.055-0.107 0.065-0.166s0.008-0.12-0.006-0.178l-1.389-5.653c-0.397-1.682-0.704-3.385-0.918-5.1 1.108-1.563 2.422-2.969 3.906-4.181 0.304-0.238 0.521-0.57 0.617-0.944s0.067-0.77-0.084-1.125zM30.096 11.422c-1.602 1.306-3.012 2.83-4.19 4.528-0.056 0.086-0.080 0.189-0.067 0.29 0.219 1.802 0.538 3.591 0.955 5.358l1.278 5.2-1.175 0.205c-0.414 0.072-0.807 0.232-1.154 0.469s-0.638 0.546-0.854 0.906l-0.2 0.33c-0.203 0.336-0.498 0.607-0.85 0.781s-0.746 0.245-1.137 0.203l-0.386-0.042c-0.416-0.045-0.837-0.001-1.234 0.129s-0.762 0.345-1.070 0.628l-0.257 0.236c-0.295 0.272-0.663 0.451-1.058 0.516s-0.802 0.014-1.168-0.149l-0.343-0.152c-0.374-0.166-0.778-0.251-1.187-0.251s-0.813 0.085-1.188 0.251l-0.343 0.152c-0.367 0.162-0.773 0.214-1.168 0.149s-0.763-0.245-1.058-0.516l-0.257-0.236c-0.308-0.283-0.673-0.497-1.070-0.628s-0.818-0.175-1.234-0.129l-0.386 0.042c-0.39 0.042-0.785-0.029-1.136-0.203s-0.647-0.445-0.85-0.781l-0.199-0.33c-0.217-0.36-0.508-0.669-0.854-0.906s-0.74-0.397-1.154-0.469l-1.175-0.205 1.279-5.205c0.417-1.766 0.736-3.553 0.954-5.354 0.012-0.102-0.012-0.205-0.067-0.291-1.177-1.697-2.587-3.221-4.188-4.527-0.173-0.138-0.289-0.335-0.324-0.554s0.012-0.442 0.133-0.628c0.121-0.185 0.307-0.319 0.521-0.375s0.441-0.029 0.637 0.074c1.034 0.538 2.011 1.178 2.916 1.911 0.063 0.052 0.14 0.086 0.221 0.097s0.164-0.001 0.239-0.035c0.075-0.034 0.138-0.088 0.184-0.156s0.071-0.148 0.073-0.23c0.009-0.39 0.017-0.78 0.017-1.17 0-2.514 0.999-4.925 2.776-6.703s4.189-2.776 6.703-2.776c2.514 0 4.925 0.999 6.703 2.776s2.776 4.189 2.776 6.703c0 0.39 0.008 0.78 0.017 1.17 0.002 0.082 0.027 0.162 0.072 0.231s0.109 0.123 0.184 0.157 0.158 0.046 0.239 0.036c0.081-0.011 0.158-0.044 0.221-0.097 0.906-0.733 1.883-1.373 2.916-1.911 0.109-0.057 0.229-0.091 0.351-0.1s0.246 0.009 0.362 0.050c0.116 0.042 0.222 0.107 0.311 0.192s0.16 0.187 0.208 0.301c0.076 0.178 0.092 0.376 0.044 0.564s-0.156 0.355-0.308 0.475z"></path>
<path d="M12.766 5.531c-1.008 0-1.828 1.003-1.828 2.235s0.82 2.234 1.828 2.234c1.008 0 1.828-1.003 1.828-2.234s-0.819-2.235-1.828-2.235zM12.766 9.125c-0.517 0-0.953-0.623-0.953-1.359s0.438-1.36 0.953-1.36c0.515 0 0.953 0.623 0.953 1.36s-0.437 1.359-0.953 1.359z"></path>
<path d="M19.234 5.531c-1.008 0-1.828 1.003-1.828 2.235s0.82 2.234 1.828 2.234c1.008 0 1.828-1.003 1.828-2.234s-0.82-2.235-1.828-2.235zM19.234 9.125c-0.516 0-0.953-0.623-0.953-1.359s0.437-1.36 0.953-1.36c0.517 0 0.953 0.623 0.953 1.36s-0.438 1.359-0.953 1.359z"></path>
<path d="M16 9.719c-1.060 0-1.891 1.27-1.891 2.891s0.831 2.89 1.891 2.89c1.060 0 1.89-1.27 1.89-2.89s-0.83-2.891-1.89-2.891zM16 14.625c-0.48 0-1.016-0.862-1.016-2.015s0.536-2.016 1.016-2.016c0.479 0 1.015 0.862 1.015 2.016s-0.536 2.015-1.015 2.015z"></path>
</symbol>
<symbol id="hearts" viewBox="0 0 32 32">
<path d="M31.698 12.905c0-2.305-0.876-4.466-2.466-6.086-1.599-1.628-3.744-2.525-6.039-2.525-2.923 0-5.608 1.465-7.193 3.876-1.585-2.41-4.27-3.876-7.193-3.876-2.295 0-4.44 0.897-6.039 2.525-1.59 1.619-2.466 3.781-2.466 6.086 0 2.16 0.625 3.423 1.128 4.438l0.055 0.11c2.080 4.214 13.71 13.88 14.204 14.289l0.311 0.258 0.312-0.257c0.012-0.010 1.109-0.915 2.671-2.27 1.456 1.298 2.613 2.259 2.625 2.269l0.311 0.258 0.312-0.257c0.306-0.252 7.498-6.2 8.729-8.798l0.034-0.072c0.297-0.625 0.704-1.481 0.704-2.783 0-1.13-0.331-2.199-0.957-3.113 0.421-0.903 0.957-2.204 0.957-4.073zM30.11 22.453l-0.035 0.073c-1.002 2.114-6.745 7.017-8.155 8.201-0.483-0.407-1.476-1.254-2.606-2.271-1.711-1.539-3.084-2.88-4.054-3.953-0.269-0.298-0.508-0.575-0.713-0.831-0.082-0.102-0.159-0.201-0.231-0.295-0.251-0.332-0.438-0.62-0.556-0.859l-0.020-0.041c-0.286-0.578-0.61-1.234-0.61-2.388 0-2.507 1.931-4.471 4.396-4.471 1.667 0 3.184 0.918 3.96 2.394l0.433 0.824 0.433-0.824c0.776-1.477 2.294-2.394 3.96-2.394 1.372 0 2.639 0.623 3.474 1.709 0.61 0.792 0.932 1.747 0.932 2.762 0 1.081-0.323 1.762-0.609 2.363zM30.042 16.145c-0.002-0.002-0.004-0.004-0.006-0.006-0.054-0.052-0.109-0.103-0.165-0.153-0.010-0.009-0.019-0.017-0.029-0.026-0.056-0.049-0.113-0.097-0.171-0.144-0.011-0.009-0.023-0.018-0.034-0.027-0.059-0.047-0.12-0.093-0.181-0.138-0.005-0.004-0.011-0.008-0.016-0.011-0.059-0.043-0.12-0.084-0.18-0.124-0.009-0.006-0.019-0.013-0.028-0.019-0.062-0.041-0.126-0.080-0.19-0.117-0.013-0.007-0.025-0.015-0.038-0.022-0.065-0.038-0.13-0.074-0.196-0.109-0.008-0.004-0.016-0.008-0.024-0.012-0.064-0.033-0.129-0.065-0.195-0.096-0.008-0.004-0.017-0.008-0.025-0.012-0.068-0.031-0.137-0.061-0.206-0.089-0.014-0.006-0.027-0.011-0.041-0.017-0.069-0.028-0.139-0.054-0.209-0.079-0.010-0.004-0.020-0.007-0.031-0.011-0.069-0.024-0.138-0.046-0.208-0.067-0.007-0.002-0.014-0.004-0.021-0.006-0.072-0.021-0.146-0.041-0.219-0.059-0.014-0.003-0.028-0.007-0.043-0.011-0.073-0.018-0.146-0.034-0.219-0.048-0.012-0.002-0.025-0.005-0.037-0.007-0.074-0.014-0.148-0.027-0.222-0.038-0.004-0.001-0.008-0.001-0.012-0.002-0.076-0.011-0.153-0.020-0.231-0.028-0.015-0.001-0.029-0.003-0.044-0.004-0.075-0.007-0.151-0.012-0.227-0.016-0.014-0.001-0.028-0.001-0.042-0.002-0.079-0.003-0.159-0.006-0.238-0.006-1.756 0-3.376 0.835-4.394 2.224-1.018-1.389-2.638-2.224-4.394-2.224-0.272 0-0.541 0.020-0.805 0.059-1.144 0.17-2.193 0.702-3.014 1.541-1.003 1.024-1.555 2.391-1.555 3.85 0 1.382 0.394 2.18 0.711 2.821l0.020 0.041c0.019 0.038 0.039 0.077 0.060 0.116 0.007 0.013 0.014 0.026 0.021 0.039 0.015 0.027 0.030 0.054 0.046 0.082 0.009 0.016 0.019 0.032 0.029 0.049 0.015 0.026 0.030 0.051 0.046 0.077 0.011 0.018 0.023 0.036 0.034 0.055 0.016 0.025 0.031 0.050 0.048 0.076 0.013 0.019 0.026 0.039 0.039 0.059 0.017 0.025 0.033 0.050 0.051 0.076 0.014 0.020 0.029 0.041 0.043 0.062 0.018 0.026 0.036 0.051 0.054 0.078 0.015 0.022 0.031 0.043 0.047 0.065 0.019 0.026 0.038 0.052 0.057 0.079 0.017 0.023 0.034 0.046 0.051 0.069 0.020 0.027 0.040 0.054 0.061 0.081 0.018 0.024 0.036 0.048 0.055 0.071 0.021 0.027 0.042 0.055 0.064 0.083 0.019 0.025 0.039 0.050 0.059 0.075 0.022 0.028 0.045 0.056 0.068 0.084 0.021 0.026 0.042 0.051 0.063 0.077 0.024 0.029 0.047 0.057 0.071 0.087 0.022 0.026 0.044 0.053 0.066 0.080 0.025 0.029 0.050 0.059 0.075 0.089 0.023 0.027 0.046 0.054 0.070 0.082 0.026 0.030 0.052 0.061 0.079 0.091 0.024 0.028 0.049 0.056 0.074 0.085 0.027 0.031 0.055 0.062 0.082 0.093 0.026 0.029 0.051 0.058 0.077 0.087 0.028 0.032 0.057 0.064 0.086 0.096 0.027 0.030 0.054 0.059 0.081 0.089 0.029 0.032 0.060 0.065 0.090 0.098 0.028 0.031 0.056 0.061 0.085 0.092 0.031 0.033 0.062 0.066 0.093 0.099 0.030 0.032 0.059 0.063 0.089 0.095 0.032 0.033 0.064 0.067 0.096 0.101 0.031 0.032 0.062 0.065 0.093 0.098 0.033 0.034 0.067 0.069 0.1 0.104 0.032 0.033 0.064 0.066 0.096 0.1 0.035 0.036 0.070 0.072 0.105 0.108 0.033 0.033 0.065 0.066 0.098 0.1 0.037 0.038 0.075 0.076 0.113 0.114 0.033 0.033 0.065 0.065 0.098 0.098 0.040 0.040 0.080 0.080 0.12 0.12 0.064 0.064 0.13 0.129 0.196 0.194 0.041 0.040 0.082 0.080 0.123 0.121 0.037 0.036 0.076 0.074 0.113 0.11 0.040 0.039 0.079 0.077 0.119 0.116s0.080 0.077 0.121 0.116c0.040 0.038 0.079 0.076 0.119 0.114 0.041 0.040 0.084 0.080 0.125 0.12 0.041 0.039 0.081 0.077 0.122 0.116s0.085 0.080 0.127 0.12c0.042 0.040 0.085 0.080 0.127 0.12s0.088 0.082 0.132 0.123c0.043 0.040 0.085 0.080 0.129 0.12 0.046 0.043 0.092 0.086 0.139 0.129 0.043 0.040 0.086 0.080 0.13 0.12 0.047 0.043 0.094 0.087 0.142 0.131 0.045 0.041 0.089 0.082 0.135 0.123 0.048 0.044 0.096 0.087 0.144 0.131 0.029 0.026 0.057 0.052 0.086 0.079-1.020 0.884-1.83 1.565-2.248 1.915-1.895-1.593-11.833-10.049-13.639-13.708l-0.055-0.111c-0.481-0.971-1.026-2.072-1.026-4.003 0-4.28 3.306-7.632 7.526-7.632 2.845 0 5.435 1.566 6.76 4.087l0.433 0.824 0.433-0.824c1.325-2.521 3.915-4.087 6.76-4.087 4.22 0 7.526 3.352 7.526 7.632-0 1.407-0.334 2.44-0.678 3.241z"></path>
<path d="M9.245 0h-0.979v3.047h0.979v-3.047z"></path>
<path d="M12.984 0.889l-1.279 2.766 0.888 0.411 1.279-2.766-0.888-0.411z"></path>
<path d="M4.527 0.888l-0.888 0.411 1.279 2.766 0.888-0.411-1.279-2.766z"></path>
<path d="M3.369 13.439c0-0.046 0-0.092 0.001-0.138l-0.979-0.020c-0.001 0.053-0.002 0.105-0.002 0.158 0 0.656 0.067 1.254 0.204 1.828l0.952-0.228c-0.119-0.498-0.177-1.022-0.177-1.601z"></path>
<path d="M4.696 8.059c-1.172 1.102-1.958 2.592-2.212 4.195l0.967 0.153c0.22-1.39 0.901-2.681 1.916-3.635l-0.67-0.713z"></path>
<path d="M16.278 16.677c-1.346 0.624-2.226 1.949-2.297 3.458l0.978 0.046c0.054-1.143 0.717-2.146 1.731-2.616l-0.412-0.888z"></path>
</symbol>
<symbol id="histori" viewBox="0 0 32 32">
<path d="M20.691 27.666c0.404-0.437 0.577-0.973 0.577-1.566 0-0.594-0.17-1.134-0.577-1.571-0.397-0.426-0.898-0.623-1.475-0.623-0.579 0-1.086 0.191-1.486 0.616-0.409 0.435-0.577 0.973-0.577 1.568 0 0.598 0.168 1.143 0.579 1.582 0.398 0.426 0.9 0.623 1.479 0.623 0.581 0 1.084-0.198 1.481-0.628v0zM18.562 26.96c-0.193-0.246-0.251-0.559-0.251-0.865 0-0.304 0.064-0.605 0.259-0.844 0.166-0.205 0.377-0.308 0.641-0.308 0.266 0 0.482 0.097 0.646 0.308 0.193 0.244 0.253 0.55 0.253 0.855s-0.064 0.609-0.255 0.851c-0.167 0.21-0.379 0.312-0.645 0.312-0.267 0-0.482-0.097-0.648-0.308v0z"></path>
<path d="M16.534 23.977h-2.079c-0.142 0-0.266 0.055-0.363 0.157-0.096 0.101-0.147 0.223-0.147 0.363 0 0.147 0.051 0.274 0.156 0.377 0.097 0.092 0.214 0.147 0.349 0.147h0.485v2.683c0 0.154 0.057 0.288 0.165 0.396l0.002 0.004 0.003 0.002c0.113 0.101 0.248 0.163 0.4 0.163 0.15 0 0.281-0.060 0.386-0.168 0.106-0.11 0.163-0.242 0.163-0.396v-2.677h0.48c0.14 0 0.264-0.051 0.363-0.152s0.152-0.225 0.152-0.366c0-0.143-0.051-0.271-0.151-0.373s-0.223-0.157-0.365-0.157z"></path>
<path d="M12.507 27.107c-0.090 0.069-0.2 0.094-0.313 0.094-0.175 0-0.379-0.062-0.542-0.122-0.115-0.041-0.31-0.111-0.43-0.111-0.142 0-0.266 0.053-0.36 0.159-0.097 0.108-0.14 0.239-0.14 0.382v0.028c0 0.272 0.214 0.444 0.439 0.552 0.305 0.145 0.655 0.189 0.988 0.189 0.432 0 0.852-0.105 1.183-0.398 0.31-0.276 0.455-0.63 0.455-1.046 0-0.439-0.17-0.796-0.546-1.026-0.232-0.149-0.549-0.248-0.813-0.324-0.106-0.028-0.212-0.060-0.315-0.099-0.035-0.012-0.103-0.037-0.135-0.060-0.033-0.028-0.073-0.067-0.073-0.115 0-0.067 0.034-0.113 0.085-0.152 0.074-0.055 0.161-0.076 0.251-0.076 0.087 0 0.198 0.028 0.281 0.052l0.158 0.055c0.097 0.032 0.227 0.073 0.329 0.073 0.144 0 0.266-0.057 0.361-0.163 0.096-0.104 0.144-0.232 0.144-0.374 0-0.246-0.168-0.414-0.372-0.525-0.253-0.136-0.545-0.182-0.829-0.182-0.416 0-0.804 0.11-1.125 0.382-0.301 0.26-0.453 0.595-0.453 0.994 0 0.38 0.14 0.697 0.46 0.906 0.096 0.064 0.213 0.113 0.321 0.156 0.158 0.060 0.321 0.111 0.484 0.159 0.15 0.044 0.328 0.095 0.471 0.161 0.039 0.018 0.092 0.048 0.115 0.087 0.021 0.039 0.030 0.085 0.030 0.129 0 0.092-0.037 0.159-0.112 0.216v0z"></path>
<path d="M26.717 28.101c0.11 0.106 0.241 0.166 0.393 0.166 0.156 0 0.292-0.060 0.398-0.175 0.104-0.112 0.161-0.246 0.161-0.4v-1.433l1.040-1.423c0.074-0.101 0.11-0.216 0.11-0.34 0-0.156-0.060-0.29-0.173-0.396-0.108-0.104-0.241-0.163-0.392-0.163-0.193 0-0.349 0.085-0.457 0.244l-0.687 0.986-0.682-0.986c-0.106-0.161-0.264-0.244-0.457-0.244-0.158 0-0.299 0.055-0.411 0.168-0.106 0.106-0.167 0.239-0.167 0.391 0 0.126 0.048 0.241 0.122 0.34l1.029 1.423v1.433c0 0.159 0.057 0.299 0.172 0.409v0z"></path>
<path d="M25.033 25.343c0-0.389-0.136-0.724-0.428-0.984-0.297-0.265-0.664-0.375-1.061-0.375h-1.027c-0.158 0-0.296 0.055-0.406 0.166-0.113 0.113-0.166 0.255-0.166 0.414v3.128c0 0.157 0.055 0.296 0.166 0.407l0.002 0.004 0.002 0.002c0.115 0.101 0.248 0.163 0.402 0.163 0.151 0 0.285-0.053 0.393-0.161 0.108-0.11 0.161-0.244 0.161-0.398v-0.904l1.001 1.231c0.113 0.14 0.259 0.232 0.441 0.232 0.152 0 0.289-0.055 0.402-0.159l0.003-0.002 0.002-0.003c0.103-0.113 0.163-0.246 0.163-0.4 0-0.14-0.051-0.262-0.145-0.366l-0.754-0.83c0.127-0.035 0.257-0.083 0.358-0.152 0.347-0.239 0.492-0.596 0.492-1.012v0zM23.806 25.61c-0.073 0.069-0.156 0.105-0.257 0.105h-0.473v-0.681h0.462c0.101 0 0.191 0.026 0.264 0.101l0.002 0.002 0.004 0.002c0.069 0.062 0.106 0.135 0.106 0.228 0 0.097-0.037 0.175-0.108 0.244z"></path>
<path d="M7.174 28.108c0.108 0.11 0.242 0.165 0.396 0.165 0.156 0 0.291-0.058 0.399-0.172 0.104-0.11 0.161-0.241 0.161-0.393v-3.201c0-0.157-0.055-0.295-0.165-0.409-0.108-0.108-0.241-0.166-0.395-0.166s-0.287 0.065-0.393 0.177c-0.104 0.112-0.167 0.244-0.167 0.398v1.023h-1.468v-1.023c0-0.156-0.055-0.292-0.161-0.403s-0.239-0.172-0.393-0.172c-0.156 0-0.291 0.064-0.399 0.177-0.106 0.112-0.167 0.244-0.167 0.398v3.201c0 0.156 0.055 0.292 0.167 0.402 0.11 0.108 0.244 0.163 0.399 0.163s0.289-0.055 0.395-0.165c0.108-0.11 0.159-0.246 0.159-0.4v-1.134h1.468v1.134c0 0.156 0.055 0.29 0.163 0.4v0z"></path>
<path d="M9.090 24.109c-0.104 0.112-0.167 0.244-0.167 0.398v3.196c0 0.154 0.055 0.29 0.163 0.4s0.244 0.165 0.397 0.165c0.154 0 0.289-0.055 0.397-0.165 0.108-0.108 0.163-0.241 0.163-0.395v-3.201c0-0.156-0.053-0.292-0.161-0.404-0.106-0.111-0.239-0.172-0.393-0.172-0.156 0-0.29 0.064-0.398 0.177z"></path>
<path d="M31.37 9.983h-23.457l23.030-4.452c0.164-0.032 0.309-0.127 0.403-0.266s0.128-0.309 0.096-0.473l-0.696-3.594c-0.066-0.342-0.397-0.565-0.739-0.499l-6.6 1.276c-0.014 0.002-0.028 0.005-0.041 0.008l-19.95 3.856c-0.002 0-0.004 0.001-0.006 0.001l-2.899 0.56c-0.164 0.032-0.309 0.127-0.403 0.266s-0.128 0.309-0.097 0.473l0.685 3.534v20.009c0 0.348 0.282 0.63 0.63 0.63h12.034c0.348 0 0.63-0.282 0.63-0.63s-0.282-0.63-0.63-0.63h-11.404v-15.148h28.783v15.148h-11.705c-0.348 0-0.63 0.282-0.63 0.63s0.282 0.63 0.63 0.63h12.335c0.348 0 0.63-0.282 0.63-0.63v-20.070c0-0.348-0.282-0.63-0.63-0.63zM21.268 13.644l1.802-2.401h3.506l-1.802 2.401h-3.506zM16.185 13.644l1.801-2.401h3.508l-1.802 2.401h-3.507zM11.101 13.644l1.802-2.401h3.507l-1.801 2.401h-3.508zM6.018 13.644l1.802-2.401h3.507l-1.802 2.401h-3.507zM1.957 10.613c0-0.355 0.289-0.644 0.645-0.644s0.645 0.289 0.645 0.644c0 0.355-0.289 0.644-0.645 0.644s-0.645-0.289-0.645-0.644zM8.379 6.164l2.521 1.958-3.347 0.647-2.52-1.958 3.345-0.647zM13.369 5.199l2.521 1.958-3.345 0.647-2.521-1.958 3.345-0.646zM18.36 4.234l2.52 1.958-3.345 0.646-2.52-1.958 3.345-0.647zM23.352 3.27l2.519 1.958-3.345 0.647-2.52-1.958 3.347-0.647zM30.084 4.413l-2.568 0.496-2.519-1.958 4.631-0.895 0.456 2.356zM3.388 7.128l2.52 1.958-1.81 0.35c-0.349-0.443-0.89-0.728-1.496-0.728-0.347 0-0.672 0.094-0.952 0.256l-0.28-1.446 2.019-0.39zM1.957 12.405c0.202 0.073 0.419 0.113 0.645 0.113 0.83 0 1.537-0.533 1.798-1.274h1.845l-1.802 2.401h-2.485v-1.239zM26.351 13.644l1.802-2.401h2.586v2.401h-4.388z"></path>
<path d="M28.196 21.616c0.348 0 0.63-0.282 0.63-0.63v-2.578c0-0.348-0.282-0.63-0.63-0.63h-24.050c-0.348 0-0.63 0.282-0.63 0.63v2.578c0 0.348 0.282 0.63 0.63 0.63h24.050zM27.566 20.356h-7.012v-1.318h7.012v1.318zM19.293 20.356h-7.286v-1.318h7.286v1.318zM4.776 19.038h5.97v1.318h-5.97v-1.318z"></path>
<path d="M16.22 30.053h-0.010c-0.348 0-0.63 0.282-0.63 0.63s0.282 0.63 0.63 0.63h0.010c0.348 0 0.63-0.282 0.63-0.63s-0.282-0.63-0.63-0.63z"></path>
</symbol>
<symbol id="rocket" viewBox="0 0 32 32">
<path d="M15.258 22.735l-6.002-6.324c-0.079-0.083-0.122-0.194-0.119-0.309s0.051-0.223 0.135-0.302l9.819-9.319c0.011-0.011 0.023-0.021 0.034-0.032 1.955-1.49 4.52-1.875 7.84-1.175 0.086 0.018 0.164 0.062 0.224 0.125s0.1 0.144 0.114 0.231c0.528 3.355 0.008 5.895-1.585 7.769-0.010 0.012-0.020 0.023-0.031 0.033l-9.819 9.318c-0.083 0.079-0.194 0.121-0.308 0.119s-0.223-0.051-0.302-0.133v0zM10.181 16.129l5.407 5.697 9.489-9.005c1.383-1.636 1.837-3.791 1.42-6.759-2.942-0.57-5.117-0.23-6.825 1.063l-9.49 9.003z"></path>
<path d="M7.074 15.409c-0.041-0.043-0.073-0.095-0.093-0.151s-0.029-0.116-0.025-0.175l0.058-0.861c0.053-0.877 0.358-1.721 0.878-2.429s1.233-1.252 2.054-1.566l0.053-0.020c1.758-0.648 3.699-0.594 5.418 0.153 0.062 0.031 0.116 0.077 0.157 0.133s0.067 0.122 0.077 0.19c0.010 0.069 0.004 0.139-0.019 0.205s-0.061 0.125-0.111 0.173l-4.413 4.188c-0.053 0.050-0.118 0.087-0.19 0.105s-0.146 0.018-0.217-0c-1.047-0.241-2.141-0.184-3.158 0.162-0.068 0.026-0.141 0.034-0.213 0.024s-0.14-0.038-0.198-0.081c-0.021-0.015-0.040-0.032-0.058-0.050v0zM10.097 10.633l0.151 0.405c-0.665 0.255-1.242 0.697-1.663 1.272s-0.666 1.259-0.708 1.97l-0.016 0.242c0.925-0.225 1.887-0.245 2.821-0.061l3.741-3.551c-1.353-0.405-2.799-0.367-4.129 0.11l-0.198-0.387z"></path>
<path d="M16.146 24.969c-0.018-0.019-0.034-0.038-0.048-0.060-0.040-0.061-0.064-0.13-0.070-0.202s0.006-0.145 0.035-0.211c0.399-0.998 0.512-2.087 0.327-3.145-0.015-0.072-0.011-0.146 0.011-0.216s0.061-0.133 0.115-0.184l4.414-4.189c0.050-0.048 0.112-0.083 0.178-0.102s0.137-0.022 0.205-0.008c0.068 0.014 0.132 0.044 0.186 0.087s0.097 0.1 0.125 0.163c0.656 1.756 0.609 3.696-0.13 5.418l-0.022 0.052c-0.356 0.803-0.936 1.487-1.671 1.97s-1.593 0.743-2.472 0.75l-0.863 0.013c-0.060 0.001-0.119-0.011-0.174-0.034s-0.105-0.058-0.146-0.101v0zM17.282 21.416c0.135 0.942 0.064 1.902-0.208 2.814l0.243-0.004c0.712-0.004 1.408-0.214 2.004-0.604s1.067-0.943 1.357-1.593l0.416 0.124-0.398-0.168c0.545-1.302 0.659-2.745 0.325-4.117l-3.738 3.548z"></path>
<path d="M20.875 11.397c-0.31-0.327-0.516-0.738-0.593-1.182s-0.019-0.901 0.164-1.312c0.183-0.412 0.484-0.76 0.865-1s0.825-0.363 1.275-0.351c0.45 0.012 0.887 0.157 1.255 0.417s0.65 0.623 0.812 1.044 0.195 0.88 0.095 1.319c-0.099 0.439-0.327 0.839-0.654 1.15-0.438 0.415-1.024 0.639-1.627 0.624s-1.176-0.27-1.592-0.708v0zM23.551 8.857c-0.192-0.203-0.44-0.344-0.713-0.406s-0.557-0.041-0.818 0.059c-0.261 0.1-0.486 0.275-0.648 0.504s-0.251 0.499-0.259 0.778c-0.007 0.279 0.068 0.555 0.218 0.791s0.365 0.423 0.62 0.537c0.255 0.114 0.539 0.149 0.814 0.102s0.531-0.175 0.733-0.368c0.271-0.258 0.429-0.613 0.439-0.988s-0.129-0.737-0.387-1.009v0z"></path>
<path d="M13.653 23.641l-5.386-5.675c-0.079-0.083-0.122-0.194-0.119-0.309s0.051-0.223 0.135-0.302l1.297-1.231c0.083-0.079 0.194-0.122 0.309-0.119s0.223 0.051 0.302 0.135l5.386 5.675c0.079 0.083 0.122 0.194 0.119 0.309s-0.051 0.223-0.135 0.302l-1.297 1.231c-0.083 0.079-0.194 0.122-0.309 0.119s-0.223-0.051-0.302-0.135zM9.192 17.684l4.79 5.048 0.669-0.635-4.79-5.048-0.669 0.635z"></path>
<path d="M5.256 26.259c-0.188-0.217-0.306-0.485-0.34-0.77s0.017-0.573 0.148-0.829c0.354-0.863 0.594-1.768 0.715-2.693 0.255-1.579 0.457-2.827 3.231-4.059 0.082-0.036 0.172-0.046 0.26-0.029s0.168 0.062 0.229 0.126l4.175 4.399c0.062 0.065 0.102 0.147 0.114 0.236s-0.002 0.179-0.043 0.258c-0.342 0.73-0.804 1.397-1.366 1.973-0.885 0.84-1.792 0.947-2.841 1.070-0.922 0.080-1.829 0.278-2.7 0.588-0.26 0.118-0.549 0.155-0.831 0.107s-0.542-0.179-0.748-0.376l-0.002-0.002zM9.084 18.826c-2.081 0.985-2.216 1.817-2.452 3.281-0.131 0.994-0.391 1.966-0.772 2.893-0.118 0.277-0.109 0.526 0.024 0.665 0.131 0.138 0.376 0.158 0.655 0.056 0.935-0.334 1.909-0.547 2.898-0.636 1.005-0.119 1.67-0.196 2.347-0.839 0.424-0.432 0.778-0.928 1.050-1.469l-3.75-3.951z"></path>
<path d="M8.213 23.433c-0.124-0.141-0.203-0.315-0.228-0.501s0.006-0.375 0.088-0.543c0.174-0.425 0.292-0.87 0.352-1.325 0.13-0.796 0.243-1.482 1.541-2.124 0.083-0.040 0.176-0.053 0.267-0.037s0.174 0.061 0.237 0.128l2.233 2.353c0.063 0.067 0.104 0.152 0.115 0.243s-0.006 0.184-0.051 0.264c-0.163 0.31-0.372 0.593-0.619 0.84-0.435 0.383-0.993 0.598-1.573 0.604-0.453 0.040-0.9 0.137-1.328 0.289-0.172 0.074-0.362 0.095-0.545 0.061s-0.354-0.121-0.488-0.251l-0.001-0.001zM10.069 19.864c-0.635 0.375-0.689 0.704-0.792 1.338-0.070 0.523-0.207 1.035-0.408 1.523-0.019 0.036-0.027 0.077-0.024 0.118 0.001-0.009 0.040-0.007 0.103-0.031 0.493-0.177 1.007-0.29 1.529-0.337 0.392 0.010 0.775-0.122 1.078-0.372 0.112-0.11 0.212-0.233 0.296-0.365l-1.781-1.874z"></path>
<path d="M14.004 17.917c-0.079-0.083-0.122-0.194-0.119-0.309s0.051-0.223 0.135-0.302l1.839-1.745c0.083-0.079 0.194-0.122 0.309-0.119s0.223 0.051 0.302 0.135c0.079 0.083 0.122 0.194 0.119 0.309s-0.051 0.223-0.135 0.302l-1.839 1.745c-0.083 0.079-0.194 0.122-0.309 0.119s-0.223-0.051-0.302-0.135z"></path>
<path d="M12.613 16.435c-0.079-0.083-0.122-0.194-0.119-0.309s0.051-0.223 0.135-0.302l0.809-0.767c0.083-0.079 0.194-0.122 0.309-0.119s0.223 0.051 0.302 0.135c0.079 0.083 0.122 0.194 0.119 0.309s-0.051 0.223-0.135 0.302l-0.809 0.767c-0.083 0.079-0.194 0.122-0.309 0.119s-0.223-0.051-0.302-0.135z"></path>
<path d="M15.408 19.38c-0.079-0.083-0.122-0.194-0.119-0.309s0.051-0.223 0.135-0.302l0.809-0.767c0.083-0.079 0.194-0.122 0.309-0.119s0.223 0.051 0.302 0.135c0.079 0.083 0.122 0.194 0.119 0.309s-0.051 0.223-0.135 0.302l-0.809 0.767c-0.083 0.079-0.194 0.122-0.309 0.119s-0.223-0.051-0.302-0.135z"></path>
</symbol>
</defs>
</svg>
